<?xml version="1.0" standalone="no"?>
<!DOCTYPE svg PUBLIC "-//W3C//DTD SVG 20010904//EN"
 "http://www.w3.org/TR/2001/REC-SVG-20010904/DTD/svg10.dtd">
<svg version="1.0" xmlns="http://www.w3.org/2000/svg"
 width="800.000000pt" height="600.000000pt" viewBox="0 0 800.000000 600.000000"
 preserveAspectRatio="xMidYMid meet">
<metadata>
Created by potrace 1.11, written by Peter Selinger 2001-2013
</metadata>
<g transform="translate(0.000000,600.000000) scale(0.100000,-0.100000)"
fill="#000000" stroke="none">
<path d="M5220 4781 c-121 -39 -200 -91 -334 -221 -317 -307 -558 -807 -582
-1211 -19 -300 91 -562 351 -837 49 -52 170 -169 269 -261 189 -175 264 -257
312 -344 26 -46 29 -62 29 -139 0 -80 -2 -89 -30 -129 -64 -90 -170 -129 -356
-129 -136 0 -231 21 -336 73 -88 45 -149 93 -299 238 -139 133 -198 168 -297
176 -100 8 -191 -23 -265 -91 -46 -42 -64 -80 -64 -133 0 -55 22 -88 109 -165
223 -198 399 -311 570 -367 313 -101 788 0 959 203 21 26 71 81 111 121 124
127 185 287 185 480 -1 119 -18 192 -72 300 -55 112 -119 193 -313 394 -93 96
-191 204 -218 240 -64 86 -123 200 -143 277 -20 79 -21 233 0 330 78 380 363
834 595 948 41 20 95 39 120 42 l46 6 24 -53 c21 -47 24 -68 24 -169 -1 -103
-4 -126 -33 -212 -18 -54 -78 -199 -133 -324 -123 -278 -168 -407 -175 -511
-7 -87 4 -142 39 -194 66 -98 262 -119 360 -38 65 53 81 107 141 455 85 490
99 596 93 699 -11 172 -90 318 -213 392 -17 10 -46 35 -64 56 -84 97 -274 142
-410 98z"/>
<path d="M3385 2741 c-190 -114 -327 -187 -743 -395 -392 -196 -435 -224 -487
-311 -14 -24 -32 -71 -41 -104 -18 -72 -7 -129 31 -159 13 -10 88 -45 167 -77
318 -129 602 -272 823 -415 139 -89 150 -92 186 -52 38 42 53 100 53 202 0 60
-4 94 -16 116 -31 57 -372 278 -659 428 -78 41 -137 76 -132 79 4 3 80 37 168
77 236 106 539 262 641 329 171 113 244 200 230 275 -9 45 -42 86 -69 86 -12
0 -80 -36 -152 -79z"/>
</g>
</svg>
