<svg xmlns="http://www.w3.org/2000/svg" version="1.0" width="800.000000pt" height="600.000000pt" viewBox="0 0 800.000000 600.000000" preserveAspectRatio="xMidYMid meet">
<metadata>
Created by potrace 1.11, written by Peter Selinger 2001-2013
</metadata>
<g fill="#399ACA" stroke="none">
<path d="M522 121.9 c-12.1 3.9 -20 9.1 -33.4 22.1 -31.7 30.7 -55.8 80.7 -58.2 121.1 -1.9 30 9.1 56.2 35.1 83.7 4.9 5.2 17 16.9 26.9 26.1 18.9 17.5 26.4 25.7 31.2 34.4 2.6 4.6 2.9 6.2 2.9 13.9 0 8 -0.2 8.9 -3 12.9 -6.4 9 -17 12.9 -35.6 12.9 -13.6 -0 -23.1 -2.1 -33.6 -7.3 -8.8 -4.5 -14.9 -9.3 -29.9 -23.8 -13.9 -13.3 -19.8 -16.8 -29.7 -17.6 -10 -0.8 -19.1 2.3 -26.5 9.1 -4.6 4.2 -6.4 8 -6.4 13.3 0 5.5 2.2 8.8 10.9 16.5 22.3 19.8 39.9 31.1 57 36.7 31.3 10.1 78.8 -0 95.9 -20.3 2.1 -2.6 7.1 -8.1 11.1 -12.1 12.4 -12.7 18.5 -28.7 18.5 -48 -0.1 -11.9 -1.8 -19.2 -7.2 -30 -5.5 -11.2 -11.9 -19.3 -31.3 -39.4 -9.3 -9.6 -19.1 -20.4 -21.8 -24 -6.4 -8.6 -12.3 -20 -14.3 -27.7 -2 -7.9 -2.1 -23.3 0 -33 7.8 -38 36.3 -83.4 59.5 -94.8 4.1 -2 9.5 -3.9 12 -4.2l4.6 -0.6 2.4 5.3c2.1 4.7 2.4 6.8 2.4 16.9 -0.1 10.3 -0.4 12.6 -3.3 21.2 -1.8 5.4 -7.8 19.9 -13.3 32.4 -12.3 27.8 -16.8 40.7 -17.5 51.1 -0.7 8.7 0.4 14.2 3.9 19.4 6.6 9.8 26.2 11.9 36 3.8 6.5 -5.3 8.1 -10.7 14.1 -45.5 8.5 -49 9.9 -59.6 9.3 -69.9 -1.1 -17.2 -9 -31.8 -21.3 -39.2 -1.7 -1 -4.6 -3.5 -6.4 -5.6 -8.4 -9.7 -27.4 -14.2 -41 -9.8z"/>
<path d="M338.5 325.9 c-19 11.4 -32.7 18.7 -74.3 39.5 -39.2 19.6 -43.5 22.4 -48.7 31.1 -1.4 2.4 -3.2 7.1 -4.1 10.4 -1.8 7.2 -0.7 12.9 3.1 15.9 1.3 1 8.8 4.5 16.7 7.7 31.8 12.9 60.2 27.2 82.3 41.5 13.9 8.9 15 9.2 18.6 5.2 3.8 -4.2 5.3 -10 5.3 -20.2 0 -6 -0.4 -9.4 -1.6 -11.6 -3.1 -5.7 -37.2 -27.8 -65.9 -42.8 -7.8 -4.1 -13.7 -7.6 -13.2 -7.9 0.4 -0.3 8 -3.7 16.8 -7.7 23.6 -10.6 53.9 -26.2 64.1 -32.9 17.1 -11.3 24.4 -20 23 -27.5 -0.9 -4.5 -4.2 -8.6 -6.9 -8.6 -1.2 -0 -8 3.6 -15.2 7.9z"/>
</g>
</svg>
